<?xml version="1.0" encoding="utf-8"?>
<!-- Generator: Adobe Illustrator 17.0.0, SVG Export Plug-In . SVG Version: 6.00 Build 0)  -->
<!DOCTYPE svg PUBLIC "-//W3C//DTD SVG 1.1//EN" "http://www.w3.org/Graphics/SVG/1.1/DTD/svg11.dtd">
<svg version="1.1" id="Layer_1" xmlns="http://www.w3.org/2000/svg" xmlns:xlink="http://www.w3.org/1999/xlink" x="0px" y="0px"
	 width="360px" height="201.5px" viewBox="0 0 360 201.5" enable-background="new 0 0 360 201.5" xml:space="preserve">
<g>
	<path fill="#58595B" d="M235.288,13.337H17.504c-6.463,0-11.702,5.239-11.702,11.702v114.418c0,6.463,5.239,11.702,11.702,11.702
		h92.909c-2.079,12.949-8.792,24.346-18.385,32.442v0.161h-8.255v4.648h8.255v0.024h71.511v-0.024h8.254v-4.648h-8.284
		c-9.694-8.105-16.48-19.569-18.572-32.603h90.351c6.462,0,11.702-5.239,11.702-11.702V25.039
		C246.99,18.576,241.75,13.337,235.288,13.337z"/>
	<path fill="#FFFFFF" d="M238.538,132.98c0,5.732-4.872,10.377-10.882,10.377H25.135c-6.01,0-10.882-4.646-10.882-10.377V31.515
		c0-5.731,4.872-10.377,10.882-10.377h202.521c6.01,0,10.882,4.646,10.882,10.377V132.98z"/>
</g>
<rect x="52.418" y="30.889" fill="#369ED9" width="144.322" height="30.772"/>
<rect x="52.418" y="104.567" fill="#369ED9" width="77.578" height="12.568"/>
<rect x="66.179" y="119.953" fill="#A7A9AC" width="50.058" height="4.768"/>
<rect x="66.179" y="127.754" fill="#A7A9AC" width="50.058" height="4.768"/>
<rect x="134.436" y="64.467" fill="#369ED9" width="62.305" height="32.698"/>
<rect x="142.307" y="100.005" fill="#A7A9AC" width="46.563" height="7.127"/>
<rect x="142.307" y="109.742" fill="#A7A9AC" width="46.563" height="7.128"/>
<rect x="142.307" y="120.128" fill="#A7A9AC" width="46.563" height="7.127"/>
<rect x="52.418" y="64.694" fill="#A7A9AC" width="74.002" height="8.235"/>
<rect x="52.418" y="76.946" fill="#A7A9AC" width="74.002" height="8.235"/>
<rect x="52.418" y="89.056" fill="#A7A9AC" width="74.002" height="8.234"/>
<path fill="#58595B" d="M295.226,61.221c4.877,0,8.832,2.769,8.832,6.182v115.06c0,3.414-3.955,6.182-8.832,6.182H208.87
	c-4.877,0-8.831-2.768-8.831-6.182V67.403c0-3.413,3.954-6.182,8.831-6.182H295.226z"/>
<path fill="#FFFFFF" d="M290.374,67.477c4.328,0,7.838,2.496,7.838,5.575v103.762c0,3.079-3.51,5.575-7.838,5.575h-76.651
	c-4.33,0-7.838-2.496-7.838-5.575V73.052c0-3.079,3.508-5.575,7.838-5.575C213.723,67.477,290.374,67.477,290.374,67.477z"/>
<path fill="#58595B" d="M352.478,189.623c0,1.837-1.409,3.325-3.149,3.325h-58.595c-1.738,0-3.149-1.488-3.149-3.325v-32.516
	c0-1.837,1.411-3.325,3.149-3.325h58.595c1.74,0,3.149,1.488,3.149,3.325V189.623z"/>
<path fill="#FFFFFF" d="M349.017,186.977c0,1.536-1.217,2.783-2.72,2.783H295.71c-1.501,0-2.719-1.247-2.719-2.783v-27.223
	c0-1.538,1.217-2.785,2.719-2.785h50.588c1.503,0,2.72,1.247,2.72,2.785v27.223H349.017z"/>
<circle fill="#FFFFFF" cx="290.575" cy="173.365" r="1.712"/>
<rect x="229.173" y="127.725" fill="#369ED9" width="44.9" height="23.564"/>
<rect x="234.845" y="155.023" fill="#A7A9AC" width="33.555" height="5.135"/>
<rect x="234.845" y="162.04" fill="#A7A9AC" width="33.555" height="5.136"/>
<rect x="234.845" y="169.523" fill="#A7A9AC" width="33.555" height="5.137"/>
<rect x="214.382" y="73.586" fill="#369ED9" width="74.482" height="22.175"/>
<rect x="224.959" y="99.632" fill="#A7A9AC" width="53.327" height="5.935"/>
<rect x="224.959" y="108.462" fill="#A7A9AC" width="53.327" height="5.935"/>
<rect x="224.959" y="117.19" fill="#A7A9AC" width="53.327" height="5.933"/>
<g>
	<rect x="299.446" y="160.138" fill="#369ED9" width="41.861" height="7.888"/>
	<rect x="304.877" y="169.258" fill="#A7A9AC" width="30.998" height="3.38"/>
	<rect x="304.877" y="174.094" fill="#A7A9AC" width="30.998" height="3.38"/>
	<rect x="304.877" y="178.931" fill="#A7A9AC" width="30.998" height="3.38"/>
	<rect x="304.877" y="183.766" fill="#A7A9AC" width="30.998" height="3.38"/>
</g>
</svg>
